#Comment line ignore any data following # character 
#Hierarchical Translation and Rotation (.htr) file 
[Header]	
#Header keywords are followed by a single value 
FileType HTR		#Single word string
DataType HTRS		#Translation followed by rotation and scale data
FileVersion 1		#integer
NumSegments 84		#integer
NumFrames 2		#integer
DataFrameRate 30		#integer, data frame rate in this file
EulerRotationOrder ZYX
CalibrationUnits mm
RotationUnits Degrees
GlobalAxisofGravity Y
BoneLengthAxis Y
ScaleFactor 1.00
[SegmentNames&Hierarchy]
#CHILD	PARENT
MASTER GLOBAL
root MASTER
chest root
L_mid_tent01 root
R_mid_tent01 root
spine01 root
Bip01_Neck chest
L_humerus chest
R_humerus chest
weapon_bone chest
Bip01_Head Bip01_Neck
eye_left_bone Bip01_Head
eye_right_bone Bip01_Head
L_forearm L_humerus
L_front_hand L_forearm
L_weapon_bone L_forearm
L_front_hand01_01 L_front_hand
L_front_hand02_01 L_front_hand
L_front_hand03_01 L_front_hand
L_front_hand01_02 L_front_hand01_01
L_front_hand02_02 L_front_hand02_01
L_front_hand03_02 L_front_hand03_01
R_forearm R_humerus
R_front_hand R_forearm
R_weapon_bone R_forearm
R_front_hand01_01 R_front_hand
R_front_hand02_01 R_front_hand
R_front_hand03_01 R_front_hand
R_front_hand01_02 R_front_hand01_01
R_front_hand02_02 R_front_hand02_01
R_front_hand03_02 R_front_hand03_01
null_rope01_connect L_mid_tent01
Rope1_Seg01 null_rope01_connect
Rope1_Seg02 Rope1_Seg01
Rope1_Seg03 Rope1_Seg02
Rope1_Seg04 Rope1_Seg03
Rope1_Seg05 Rope1_Seg04
Rope1_Seg06 Rope1_Seg05
Rope1_Seg07 Rope1_Seg06
Rope1_Seg09 Rope1_Seg07
L_mid_hand01 Rope1_Seg09
L_mid_hand02 Rope1_Seg09
L_mid_hand03 Rope1_Seg09
null_rope02_connect R_mid_tent01
Rope2_Seg01 null_rope02_connect
Rope2_Seg02 Rope2_Seg01
Rope2_Seg03 Rope2_Seg02
Rope2_Seg04 Rope2_Seg03
Rope2_Seg05 Rope2_Seg04
Rope2_Seg06 Rope2_Seg05
Rope2_Seg07 Rope2_Seg06
Rope2_Seg09 Rope2_Seg07
R_mid_hand01 Rope2_Seg09
R_mid_hand02 Rope2_Seg09
R_mid_hand03 Rope2_Seg09
spine02 spine01
spine03 spine02
pelvis spine03
null_rope03_connect pelvis
null_rope04_connect pelvis
Rope3_Seg01 null_rope03_connect
Rope3_Seg02 Rope3_Seg01
Rope3_Seg03 Rope3_Seg02
Rope3_Seg04 Rope3_Seg03
Rope3_Seg05 Rope3_Seg04
Rope3_Seg06 Rope3_Seg05
Rope3_Seg07 Rope3_Seg06
Rope3_Seg08 Rope3_Seg07
Rope3_Seg09 Rope3_Seg08
R_rear_hand01 Rope3_Seg09
R_rear_hand02 Rope3_Seg09
R_rear_hand03 Rope3_Seg09
Rope4_Seg01 null_rope04_connect
Rope4_Seg02 Rope4_Seg01
Rope4_Seg03 Rope4_Seg02
Rope4_Seg04 Rope4_Seg03
Rope4_Seg05 Rope4_Seg04
Rope4_Seg06 Rope4_Seg05
Rope4_Seg07 Rope4_Seg06
Rope4_Seg08 Rope4_Seg07
Rope4_Seg09 Rope4_Seg08
L_rear_hand01 Rope4_Seg09
L_rear_hand02 Rope4_Seg09
L_rear_hand03 Rope4_Seg09
[BasePosition]
#SegmentName Tx, Ty, Tz, Rx, Ry, Rz, BoneLength
MASTER 0.000000 0.000000 0.000000 -90.000000 0.000000 0.000000 10.000000 
root 0.000000 0.000000 0.000000 0.000000 0.000000 0.000000 10.000000 
chest 0.000000 0.000000 0.000000 0.000000 0.000000 0.000000 10.000000 
L_mid_tent01 0.000000 0.000000 0.000000 0.000000 0.000000 0.000000 10.000000 
R_mid_tent01 0.000000 0.000000 0.000000 0.000000 0.000000 0.000000 10.000000 
spine01 0.000000 0.000000 0.000000 0.000000 0.000000 0.000000 10.000000 
Bip01_Neck 0.000000 0.000000 0.000000 0.000000 0.000000 0.000000 10.000000 
L_humerus 0.000000 0.000000 0.000000 0.000000 0.000000 0.000000 10.000000 
R_humerus 0.000000 0.000000 0.000000 0.000000 0.000000 0.000000 10.000000 
weapon_bone 0.000000 0.000000 0.000000 0.000000 0.000000 0.000000 10.000000 
Bip01_Head 0.000000 0.000000 0.000000 0.000000 0.000000 0.000000 10.000000 
eye_left_bone 0.000000 0.000000 0.000000 0.000000 0.000000 0.000000 10.000000 
eye_right_bone 0.000000 0.000000 0.000000 0.000000 0.000000 0.000000 10.000000 
L_forearm 0.000000 0.000000 0.000000 0.000000 0.000000 0.000000 10.000000 
L_front_hand 0.000000 0.000000 0.000000 0.000000 0.000000 0.000000 10.000000 
L_weapon_bone 0.000000 0.000000 0.000000 0.000000 0.000000 0.000000 10.000000 
L_front_hand01_01 0.000000 0.000000 0.000000 0.000000 0.000000 0.000000 10.000000 
L_front_hand02_01 0.000000 0.000000 0.000000 0.000000 0.000000 0.000000 10.000000 
L_front_hand03_01 0.000000 0.000000 0.000000 0.000000 0.000000 0.000000 10.000000 
L_front_hand01_02 0.000000 0.000000 0.000000 0.000000 0.000000 0.000000 10.000000 
L_front_hand02_02 0.000000 0.000000 0.000000 0.000000 0.000000 0.000000 10.000000 
L_front_hand03_02 0.000000 0.000000 0.000000 0.000000 0.000000 0.000000 10.000000 
R_forearm 0.000000 0.000000 0.000000 0.000000 0.000000 0.000000 10.000000 
R_front_hand 0.000000 0.000000 0.000000 0.000000 0.000000 0.000000 10.000000 
R_weapon_bone 0.000000 0.000000 0.000000 0.000000 0.000000 0.000000 10.000000 
R_front_hand01_01 0.000000 0.000000 0.000000 0.000000 0.000000 0.000000 10.000000 
R_front_hand02_01 0.000000 0.000000 0.000000 0.000000 0.000000 0.000000 10.000000 
R_front_hand03_01 0.000000 0.000000 0.000000 0.000000 0.000000 0.000000 10.000000 
R_front_hand01_02 0.000000 0.000000 0.000000 0.000000 0.000000 0.000000 10.000000 
R_front_hand02_02 0.000000 0.000000 0.000000 0.000000 0.000000 0.000000 10.000000 
R_front_hand03_02 0.000000 0.000000 0.000000 0.000000 0.000000 0.000000 10.000000 
null_rope01_connect 0.000000 0.000000 0.000000 0.000000 0.000000 0.000000 10.000000 
Rope1_Seg01 0.000000 0.000000 0.000000 0.000000 0.000000 0.000000 10.000000 
Rope1_Seg02 0.000000 0.000000 0.000000 0.000000 0.000000 0.000000 10.000000 
Rope1_Seg03 0.000000 0.000000 0.000000 0.000000 0.000000 0.000000 10.000000 
Rope1_Seg04 0.000000 0.000000 0.000000 0.000000 0.000000 0.000000 10.000000 
Rope1_Seg05 0.000000 0.000000 0.000000 0.000000 0.000000 0.000000 10.000000 
Rope1_Seg06 0.000000 0.000000 0.000000 0.000000 0.000000 0.000000 10.000000 
Rope1_Seg07 0.000000 0.000000 0.000000 0.000000 0.000000 0.000000 10.000000 
Rope1_Seg09 0.000000 0.000000 0.000000 0.000000 0.000000 0.000000 10.000000 
L_mid_hand01 0.000000 0.000000 0.000000 0.000000 0.000000 0.000000 10.000000 
L_mid_hand02 0.000000 0.000000 0.000000 0.000000 0.000000 0.000000 10.000000 
L_mid_hand03 0.000000 0.000000 0.000000 0.000000 0.000000 0.000000 10.000000 
null_rope02_connect 0.000000 0.000000 0.000000 0.000000 0.000000 0.000000 10.000000 
Rope2_Seg01 0.000000 0.000000 0.000000 0.000000 0.000000 0.000000 10.000000 
Rope2_Seg02 0.000000 0.000000 0.000000 0.000000 0.000000 0.000000 10.000000 
Rope2_Seg03 0.000000 0.000000 0.000000 0.000000 0.000000 0.000000 10.000000 
Rope2_Seg04 0.000000 0.000000 0.000000 0.000000 0.000000 0.000000 10.000000 
Rope2_Seg05 0.000000 0.000000 0.000000 0.000000 0.000000 0.000000 10.000000 
Rope2_Seg06 0.000000 0.000000 0.000000 0.000000 0.000000 0.000000 10.000000 
Rope2_Seg07 0.000000 0.000000 0.000000 0.000000 0.000000 0.000000 10.000000 
Rope2_Seg09 0.000000 0.000000 0.000000 0.000000 0.000000 0.000000 10.000000 
R_mid_hand01 0.000000 0.000000 0.000000 0.000000 0.000000 0.000000 10.000000 
R_mid_hand02 0.000000 0.000000 0.000000 0.000000 0.000000 0.000000 10.000000 
R_mid_hand03 0.000000 0.000000 0.000000 0.000000 0.000000 0.000000 10.000000 
spine02 0.000000 0.000000 0.000000 0.000000 0.000000 0.000000 10.000000 
spine03 0.000000 0.000000 0.000000 0.000000 0.000000 0.000000 10.000000 
pelvis 0.000000 0.000000 0.000000 0.000000 0.000000 0.000000 10.000000 
null_rope03_connect 0.000000 0.000000 0.000000 0.000000 0.000000 0.000000 10.000000 
null_rope04_connect 0.000000 0.000000 0.000000 0.000000 0.000000 0.000000 10.000000 
Rope3_Seg01 0.000000 0.000000 0.000000 0.000000 0.000000 0.000000 10.000000 
Rope3_Seg02 0.000000 0.000000 0.000000 0.000000 0.000000 0.000000 10.000000 
Rope3_Seg03 0.000000 0.000000 0.000000 0.000000 0.000000 0.000000 10.000000 
Rope3_Seg04 0.000000 0.000000 0.000000 0.000000 0.000000 0.000000 10.000000 
Rope3_Seg05 0.000000 0.000000 0.000000 0.000000 0.000000 0.000000 10.000000 
Rope3_Seg06 0.000000 0.000000 0.000000 0.000000 0.000000 0.000000 10.000000 
Rope3_Seg07 0.000000 0.000000 0.000000 0.000000 0.000000 0.000000 10.000000 
Rope3_Seg08 0.000000 0.000000 0.000000 0.000000 0.000000 0.000000 10.000000 
Rope3_Seg09 0.000000 0.000000 0.000000 0.000000 0.000000 0.000000 10.000000 
R_rear_hand01 0.000000 0.000000 0.000000 0.000000 0.000000 0.000000 10.000000 
R_rear_hand02 0.000000 0.000000 0.000000 0.000000 0.000000 0.000000 10.000000 
R_rear_hand03 0.000000 0.000000 0.000000 0.000000 0.000000 0.000000 10.000000 
Rope4_Seg01 0.000000 0.000000 0.000000 0.000000 0.000000 0.000000 10.000000 
Rope4_Seg02 0.000000 0.000000 0.000000 0.000000 0.000000 0.000000 10.000000 
Rope4_Seg03 0.000000 0.000000 0.000000 0.000000 0.000000 0.000000 10.000000 
Rope4_Seg04 0.000000 0.000000 0.000000 0.000000 0.000000 0.000000 10.000000 
Rope4_Seg05 0.000000 0.000000 0.000000 0.000000 0.000000 0.000000 10.000000 
Rope4_Seg06 0.000000 0.000000 0.000000 0.000000 0.000000 0.000000 10.000000 
Rope4_Seg07 0.000000 0.000000 0.000000 0.000000 0.000000 0.000000 10.000000 
Rope4_Seg08 0.000000 0.000000 0.000000 0.000000 0.000000 0.000000 10.000000 
Rope4_Seg09 0.000000 0.000000 0.000000 0.000000 0.000000 0.000000 10.000000 
L_rear_hand01 0.000000 0.000000 0.000000 0.000000 0.000000 0.000000 10.000000 
L_rear_hand02 0.000000 0.000000 0.000000 0.000000 0.000000 0.000000 10.000000 
L_rear_hand03 0.000000 0.000000 0.000000 0.000000 0.000000 0.000000 10.000000 
#Beginning of Data. Separated by tabs
#Fr	Tx	Ty	Tz	Rx	Ry	Rz	SF
[MASTER]
23 -177.296814 2505.362793 0.000000 0.001660 0.001660 0.001660 2511.628174
24 -190.333893 2127.034424 0.000000 0.001660 0.001660 0.001660 2135.533203
[root]
23 -146.957260 -62.822109 1500.089600 -55.868057 -22.372677 -124.439285 1508.579468
24 -165.098618 -62.822109 1500.102173 -63.854134 -25.772320 -125.081596 1510.467041
[chest]
23 -84.512650 -34.090519 0.000000 5.541577 5.255836 128.112274 91.129311
24 -84.512650 -34.090519 0.000000 5.346563 6.560237 130.329010 91.129311
[L_mid_tent01]
23 27.299446 22.177551 -249.918274 95.056412 36.365524 -177.460190 252.381149
24 27.299446 22.177553 -249.918274 96.301231 31.206758 -173.640274 252.381149
[R_mid_tent01]
23 23.228794 24.509907 226.238495 162.303116 -26.402393 82.281197 228.744751
24 23.228794 24.509907 226.238495 162.104950 -26.273832 82.724823 228.744751
[spine01]
23 -0.361383 -0.195265 0.000000 0.001845 0.001451 13.654368 0.410763
24 -0.361383 -0.195265 0.000000 0.001845 0.001451 13.654368 0.410763
[Bip01_Neck]
23 165.484543 71.581718 0.000119 176.643677 -1.657967 43.431911 180.302734
24 165.484543 71.581718 0.000119 176.643677 -1.657967 43.431911 180.302734
[L_humerus]
23 -13.983130 -135.272980 -120.471481 -144.450989 57.341782 -48.525188 181.680161
24 -13.983130 -135.272980 -120.471481 -146.781525 55.363987 -50.922836 181.680161
[R_humerus]
23 -13.983309 -135.273102 125.287651 124.624519 -25.158440 -16.552126 184.909012
24 -13.983309 -135.273102 125.287651 127.219063 -24.554798 -19.545570 184.909012
[weapon_bone]
23 235.964890 -300.705902 0.000000 0.000000 -89.951546 -128.212341 382.234833
24 235.964890 -300.705902 0.000000 0.000000 -89.951546 -128.212341 382.234833
[Bip01_Head]
23 213.444336 185.715485 11.776983 6.744448 -0.433549 12.495801 283.173828
24 213.444336 185.715485 11.776983 5.902238 -1.020214 17.735373 283.173828
[eye_left_bone]
23 -24.626970 125.451866 -64.772606 0.000000 -90.000000 -99.840431 143.318359
24 -24.626970 125.451866 -64.772606 0.000000 -90.000000 -99.840431 143.318359
[eye_right_bone]
23 -24.626970 125.451866 64.327362 0.000000 -89.965736 80.156380 143.117676
24 -24.626970 125.451866 64.327362 0.000000 -89.965736 80.156380 143.117676
[L_forearm]
23 322.776093 0.000000 -0.000119 0.000327 -0.002324 -105.996216 322.776093
24 322.776093 0.000000 -0.000119 0.000323 -0.002325 -105.841324 322.776093
[L_front_hand]
23 241.149185 -0.042021 -3.300071 149.893951 -1.837326 -27.423067 241.171753
24 241.149185 -0.042021 -3.300071 149.893951 -1.837326 -27.423067 241.171753
[L_weapon_bone]
23 156.183838 0.000000 0.000000 0.000014 0.000007 0.000001 156.183838
24 156.183838 0.000000 0.000000 0.000014 0.000007 0.000001 156.183838
[L_front_hand01_01]
23 86.095154 20.947098 -0.655860 -0.334039 -0.500940 71.473793 88.609184
24 86.095154 20.947098 -0.655860 -0.343298 -0.494452 72.684837 88.609184
[L_front_hand02_01]
23 86.935165 -11.437475 24.513514 148.679001 -58.017033 -54.691509 91.046425
24 86.935165 -11.437475 24.513514 150.381821 -58.634846 -56.693264 91.046425
[L_front_hand03_01]
23 86.637497 -14.123976 -20.424902 -148.599609 56.232170 -56.378216 90.126129
24 86.637497 -14.123976 -20.424902 -150.184570 56.852543 -58.280544 90.126129
[L_front_hand01_02]
23 71.020905 -0.000179 0.000030 0.000329 -0.002324 -106.126221 71.020905
24 71.020905 -0.000179 0.000030 0.000332 -0.002324 -106.256096 71.020905
[L_front_hand02_02]
23 71.020927 -0.000119 0.000060 0.000329 -0.002324 -106.126221 71.020927
24 71.020927 -0.000119 0.000060 0.000332 -0.002324 -106.256096 71.020927
[L_front_hand03_02]
23 71.020905 -0.000060 0.000060 0.000329 -0.002324 -106.126221 71.020905
24 71.020905 -0.000060 0.000060 0.000332 -0.002324 -106.256096 71.020905
[R_forearm]
23 322.776428 -0.000060 0.000030 0.202441 -0.064099 -72.537148 322.776428
24 322.776428 -0.000060 0.000030 0.198814 -0.072213 -70.705803 322.776428
[R_front_hand]
23 238.847015 -0.006795 2.210259 -8.879461 -10.642945 -26.315107 238.857239
24 238.847015 -0.006795 2.210259 -8.879457 -10.642941 -26.315098 238.857239
[R_weapon_bone]
23 155.664093 0.002503 -0.000030 0.003487 0.001180 -90.988930 155.664078
24 155.664093 0.002503 -0.000030 0.003487 0.001180 -90.988930 155.664078
[R_front_hand01_01]
23 87.624611 14.231146 22.918642 -153.536880 -59.633732 60.470898 91.683487
24 87.624611 14.231146 22.918642 -154.633499 -59.950619 61.746044 91.683487
[R_front_hand02_01]
23 89.356956 14.367283 -19.491137 153.567596 57.993011 62.531052 92.579636
24 89.356956 14.367283 -19.491137 154.602661 58.302849 63.744389 92.579636
[R_front_hand03_01]
23 87.286232 -22.307278 -0.143439 0.155617 -0.427176 -75.061516 90.091743
24 87.286232 -22.307278 -0.143439 0.162155 -0.423168 -75.767921 90.091743
[R_front_hand01_02]
23 71.020905 0.000060 0.000119 0.002323 -0.000334 106.381714 71.020905
24 71.020905 0.000060 0.000119 0.002323 -0.000334 106.381714 71.020905
[R_front_hand02_02]
23 71.020844 -0.000030 -0.000119 0.002323 -0.000334 106.381714 71.020836
24 71.020844 -0.000030 -0.000119 0.002323 -0.000334 106.381714 71.020836
[R_front_hand03_02]
23 71.020905 0.000000 0.000030 0.002323 -0.000334 106.381714 71.020905
24 71.020905 0.000000 0.000030 0.002323 -0.000334 106.381714 71.020905
[null_rope01_connect]
23 328.732483 0.000000 -0.000238 -144.861633 -12.857513 93.868622 328.732483
24 328.732483 0.000000 -0.000238 -150.141144 -4.810761 90.608665 328.732483
[Rope1_Seg01]
23 -0.000032 0.000026 0.000106 137.958481 -26.429628 84.342453 0.000114
24 -0.000032 0.000026 0.000104 110.394653 -15.349609 81.244057 0.000112
[Rope1_Seg02]
23 139.999863 -0.000179 0.000000 -9.522397 -5.495131 1.667077 139.999863
24 139.999863 -0.000179 0.000000 -9.052520 -5.951793 2.753609 139.999863
[Rope1_Seg03]
23 139.999924 0.000060 -0.000060 -22.833302 -7.620896 1.011920 139.999924
24 139.999924 0.000060 -0.000060 -30.300068 -8.891091 2.516260 139.999924
[Rope1_Seg04]
23 139.999924 -0.000060 -0.000119 -71.801109 -15.740053 -2.822537 139.999924
24 139.999924 -0.000060 -0.000119 -81.053329 -16.338299 -4.483618 139.999924
[Rope1_Seg05]
23 139.999832 0.000119 -0.000060 -5.006191 2.031081 -4.806912 139.999832
24 139.999832 0.000119 -0.000060 -0.573741 -0.535551 0.375314 139.999832
[Rope1_Seg06]
23 139.999954 0.000119 -0.000060 30.860697 4.127956 9.208121 139.999954
24 139.999954 0.000119 -0.000060 19.501432 -1.220848 6.289240 139.999954
[Rope1_Seg07]
23 139.999985 0.000060 0.000000 8.927569 2.964241 1.200803 139.999985
24 139.999985 0.000060 0.000000 7.576506 0.125635 1.571336 139.999985
[Rope1_Seg09]
23 121.602913 0.000119 -0.000089 -89.793175 -1.359789 0.847147 121.602913
24 121.602913 0.000119 -0.000089 -89.793175 -1.359789 0.847147 121.602913
[L_mid_hand01]
23 103.859421 1.038730 8.195221 116.522400 -56.273518 -23.071623 104.187431
24 103.859421 1.038730 8.195221 119.055557 -59.298035 -26.066509 104.187431
[L_mid_hand02]
23 105.572853 -4.139662 -10.864139 -157.484589 39.487522 -56.304882 106.211075
24 105.572853 -4.139662 -10.864139 -160.167114 40.723133 -60.466225 106.211075
[L_mid_hand03]
23 104.641464 17.579376 -3.913581 -10.068317 15.918207 60.978386 106.179977
24 104.641464 17.579376 -3.913581 -9.090181 16.486181 64.488472 106.179977
[null_rope02_connect]
23 328.732849 0.000179 -0.000119 -157.861069 49.907597 -31.863226 328.732849
24 328.732849 0.000179 -0.000119 -160.372375 58.705162 -32.843250 328.732849
[Rope2_Seg01]
23 0.000050 0.000106 0.000000 -52.032192 -13.524981 79.744484 0.000117
24 0.000050 0.000104 0.000000 -51.508503 -13.500456 73.996857 0.000115
[Rope2_Seg02]
23 139.999741 -0.000060 -0.000119 3.797132 2.251437 4.898405 139.999756
24 139.999741 -0.000060 -0.000119 3.205195 1.700749 5.301095 139.999756
[Rope2_Seg03]
23 140.000107 0.000030 0.000000 3.561774 2.220851 4.600233 140.000107
24 140.000107 0.000030 0.000000 2.463538 1.845132 3.811990 140.000107
[Rope2_Seg04]
23 139.999802 0.000000 -0.000060 4.120288 2.462753 5.408479 139.999802
24 139.999802 0.000000 -0.000060 1.589806 2.134151 2.123982 139.999802
[Rope2_Seg05]
23 139.999985 -0.000060 0.000119 -0.434237 0.670667 -0.960337 139.999985
24 139.999985 -0.000060 0.000119 2.454947 0.311633 4.709161 139.999985
[Rope2_Seg06]
23 139.999893 -0.000030 -0.000119 -3.527229 -0.926155 -5.830940 139.999893
24 139.999893 -0.000030 -0.000119 3.402152 -0.756234 6.489293 139.999893
[Rope2_Seg07]
23 139.999893 0.000060 -0.000060 -2.061006 -0.178933 -3.710525 139.999893
24 139.999893 0.000060 -0.000060 2.658113 -0.040830 4.389793 139.999893
[Rope2_Seg09]
23 121.338966 0.000089 -0.000060 33.793236 -1.359788 -0.847141 121.338966
24 121.338966 0.000089 -0.000060 33.793236 -1.359788 -0.847141 121.338966
[R_mid_hand01]
23 104.680779 11.144459 -10.335981 -35.915787 33.394672 39.963593 105.778534
24 104.680779 11.144459 -10.335981 -34.395386 34.968529 42.666183 105.778534
[R_mid_hand02]
23 104.070427 2.443552 8.231699 69.545189 -44.771057 15.251757 104.424065
24 104.070427 2.443552 8.231699 68.534218 -47.330906 16.661512 104.424065
[R_mid_hand03]
23 106.028137 -11.221827 -5.996406 -170.436981 12.655033 -49.730160 106.788818
24 106.028137 -11.221827 -5.996406 -171.057129 13.096079 -52.505196 106.788818
[spine02]
23 129.756927 0.001550 0.000119 -1.023899 -3.926965 6.770993 129.756927
24 129.756927 0.001550 0.000119 -1.023899 -3.926965 6.770993 129.756927
[spine03]
23 78.613846 0.087372 -4.898873 1.040681 4.146420 4.212376 78.766380
24 78.613846 0.087372 -4.898873 1.040681 4.146420 4.212376 78.766380
[pelvis]
23 169.435242 0.051022 0.000000 0.019518 -0.190233 -10.721436 169.435257
24 169.435242 0.051022 0.000000 0.019518 -0.190233 -10.721436 169.435257
[null_rope03_connect]
23 -1.257226 -2.466202 137.391083 -29.802799 -53.615482 137.968430 137.418976
24 -1.257226 -2.466202 137.391083 -42.690544 -57.735638 151.877441 137.418976
[null_rope04_connect]
23 -1.259640 -2.480268 -137.844437 -29.802799 -53.615482 137.968430 137.872513
24 -1.259640 -2.480268 -137.844437 -42.690544 -57.735638 151.877441 137.872513
[Rope3_Seg01]
23 -0.000026 0.000040 -0.000047 9.242177 -28.008345 122.331131 0.000067
24 -0.000026 0.000046 -0.000049 11.136442 -40.068310 117.485252 0.000071
[Rope3_Seg02]
23 139.999924 -0.000119 0.000060 -0.464420 9.316360 -19.985245 139.999924
24 139.999924 -0.000119 0.000060 -4.193582 12.350743 -21.841635 139.999924
[Rope3_Seg03]
23 139.999924 -0.000119 0.000119 -5.131858 10.287378 -22.025902 139.999924
24 139.999924 -0.000119 0.000119 -6.431975 10.859744 -17.610050 139.999924
[Rope3_Seg04]
23 139.999924 0.000119 0.000000 -3.933132 5.553353 -10.936169 139.999924
24 139.999924 0.000119 0.000000 -5.966316 8.655943 -11.667686 139.999924
[Rope3_Seg05]
23 139.999924 -0.000238 0.000060 2.125006 -4.468311 4.226433 139.999924
24 139.999924 -0.000238 0.000060 -4.655200 6.805938 -7.723238 139.999924
[Rope3_Seg06]
23 139.999893 -0.000119 -0.000060 2.117091 -3.871568 4.370719 139.999893
24 139.999893 -0.000119 -0.000060 -2.464709 4.239846 -4.144646 139.999893
[Rope3_Seg07]
23 139.999771 0.000060 -0.000119 1.074084 -1.385622 1.304382 139.999771
24 139.999771 0.000060 -0.000119 -1.282522 2.700695 -2.418323 139.999771
[Rope3_Seg08]
23 139.999985 -0.000060 0.000000 0.900199 -0.880484 0.855335 139.999985
24 139.999985 -0.000060 0.000000 -0.558532 1.676401 -1.436021 139.999985
[Rope3_Seg09]
23 90.185997 -0.000179 -0.000060 89.793228 -1.359877 -0.847183 90.185997
24 90.185997 -0.000179 -0.000060 89.793228 -1.359877 -0.847183 90.185997
[R_rear_hand01]
23 103.366196 -6.073594 -10.757982 -166.511459 20.844780 -45.419312 104.101845
24 103.366196 -6.073594 -10.757982 -167.736008 21.565811 -48.800869 104.101845
[R_rear_hand02]
23 100.509819 12.039542 -7.992327 -28.715403 27.221794 42.882904 101.543350
24 100.509819 12.039542 -7.992327 -27.197781 28.737717 46.115421 101.543350
[R_rear_hand03]
23 101.539970 5.215704 5.435467 81.812378 -45.906330 9.761464 101.819031
24 101.539970 5.215704 5.435467 81.295578 -49.108307 10.466796 101.819031
[Rope4_Seg01]
23 0.000000 0.000000 0.000000 -99.931953 -6.593050 127.439476 0.000000
24 0.000000 0.000000 0.000000 -106.497162 -12.273244 122.585342 0.000000
[Rope4_Seg02]
23 139.999985 0.000060 0.000119 -3.505900 16.990129 3.045493 139.999985
24 139.999985 0.000060 0.000119 -0.044606 15.938597 6.701108 139.999985
[Rope4_Seg03]
23 139.999924 0.000000 -0.000238 -0.876547 34.945171 6.392430 139.999924
24 139.999924 0.000000 -0.000238 3.732648 29.849064 15.001551 139.999924
[Rope4_Seg04]
23 139.999985 0.000000 0.000119 1.668587 18.329233 8.263564 139.999985
24 139.999985 0.000000 0.000119 2.190581 20.433813 8.772735 139.999985
[Rope4_Seg05]
23 139.999802 -0.000060 -0.000119 -2.905838 -15.561639 3.150290 139.999802
24 139.999802 -0.000060 -0.000119 0.752806 -7.501097 -4.871714 139.999802
[Rope4_Seg06]
23 139.999924 0.000000 0.000060 -0.244026 -3.924065 0.960148 139.999924
24 139.999924 0.000000 0.000060 0.220433 -1.578859 -1.158805 139.999924
[Rope4_Seg07]
23 139.999802 0.000000 0.000000 0.022939 -1.566307 0.614661 139.999802
24 139.999802 0.000000 0.000000 0.195934 -0.383398 -0.414441 139.999802
[Rope4_Seg08]
23 139.999924 0.000000 0.000119 -1.504812 -0.918544 0.359955 139.999924
24 139.999924 0.000000 0.000119 -1.417306 -0.228862 -0.242817 139.999924
[Rope4_Seg09]
23 90.185791 0.000060 0.000060 -135.617828 2.228885 0.850567 90.185791
24 90.185791 0.000060 0.000060 -135.617828 2.228885 0.850567 90.185791
[L_rear_hand01]
23 101.696655 -8.392275 -7.654577 -21.250166 -33.196434 122.367783 102.329041
24 101.696655 -8.392275 -7.654577 -19.499575 -34.171803 119.209053 102.329041
[L_rear_hand02]
23 102.726799 -1.568258 5.773216 78.649612 59.766800 166.297333 102.900848
24 102.726799 -1.568258 5.773216 77.604706 62.517124 165.103577 102.900848
[L_rear_hand03]
23 104.552910 9.721220 -10.420293 -172.167084 -23.462940 -119.660820 105.519653
24 104.552910 9.721220 -10.420293 -173.384872 -23.818932 -116.619843 105.519653
